#!OML:ASF I:\Actors\actors\Patient Classification 1\Patient 1\Session 1\Subject1.ASF
:FULLY-SPECIFIED
:DEGREES
1648
root 0.188915 17.6302 7.93958 22.788 -2.52497 -9.31864
lowerback 6.62649 2.19532 7.07306
upperback 1.35939 3.488 3.66525
thorax -2.11358 1.69535 -0.450463
lowerneck -16.2145 -5.98222 -6.34542
upperneck 10.5038 -7.96608 9.01421
head 6.47484 -3.40038 3.07966
rclavicle 7.95139e-015 -3.57812e-015
rhumerus 51.646 21.7641 -34.0308
rradius 55.915
rwrist 8.89808
rhand 20.3716 -52.6428
rfingers 7.12502
rthumb 44.8811 -796.189
lclavicle 7.95139e-015 -3.57812e-015
lhumerus 72.2886 -31.3501 28.1745
lradius 41.6173
lwrist -3.43034
lhand -22.1321 20.0526
lfingers 7.12502
lthumb 4.28121 49.9893
rfemur -24.9018 27.5585 13.1802
rtibia 4.78614
rfoot -9.59441 -28.7433
rtoes 3.76333
lfemur -19.0268 -61.2443 11.1719
ltibia -5.01621
lfoot -73.7939 56.6469
ltoes 43.0288
1649
root 0.189521 17.6294 7.94018 22.7749 -2.63164 -9.31616
lowerback 6.5998 2.12895 6.93668
upperback 1.36875 3.38829 3.69658
thorax -2.10465 1.64724 -0.334381
lowerneck -16.2247 -5.78915 -6.17441
upperneck 10.4379 -7.69127 8.71545
head 6.41322 -3.28583 2.98803
rclavicle 1.27222e-014 -1.43125e-014
rhumerus 51.2386 21.752 -35.9155
rradius 55.9168
rwrist 9.21189
rhand 19.8695 -54.0685
rfingers 7.12502
rthumb 44.4135 -797.795
lclavicle 1.27222e-014 -1.43125e-014
lhumerus 71.9618 -31.2503 28.5334
lradius 41.3297
lwrist -3.5358
lhand -22.7516 20.087
lfingers 7.12502
lthumb 3.68296 50.035
rfemur -24.8967 27.4072 13.2265
rtibia 4.82012
rfoot -9.49805 -28.487
rtoes 3.72338
lfemur -18.7631 -61.2147 10.9125
ltibia -5.04959
lfoot -74.0199 56.3193
ltoes 43.4088
1650
root 0.189746 17.6284 7.94016 22.7693 -2.74436 -9.30187
lowerback 6.55133 2.03555 6.72081
upperback 1.39529 3.24512 3.76702
thorax -2.07418 1.57893 -0.129588
lowerneck -16.228 -5.55054 -5.91932
upperneck 10.3326 -7.35068 8.27612
head 6.32516 -3.14801 2.84515
rclavicle 3.67752e-014 6.95746e-014
rhumerus 50.9813 21.722 -37.9529
rradius 55.751
rwrist 9.67217
rhand 20.3248 -56.2662
rfingers 7.12502
rthumb 44.8376 -799.829
lclavicle 3.67752e-014 6.95746e-014
lhumerus 71.5671 -31.0668 28.9144
lradius 41.0306
lwrist -3.51857
lhand -23.2876 20.0853
lfingers 7.12502
lthumb 3.16532 50.0416
rfemur -24.9103 27.2865 13.239
rtibia 4.84507
rfoot -9.44014 -28.2594
rtoes 3.67799
lfemur -18.5102 -61.1764 10.6569
ltibia -5.09365
lfoot -74.1814 56.0578
ltoes 43.7241
1651
root 0.188918 17.6274 7.93998 22.7765 -2.85538 -9.28642
lowerback 6.50939 1.97003 6.53917
upperback 1.39953 3.14285 3.80387
thorax -2.06349 1.52972 0.0179055
lowerneck -16.2169 -5.36668 -5.78138
upperneck 10.2819 -7.09078 8.01793
head 6.27225 -3.03863 2.7699
rclavicle 1.76918e-014 3.22031e-014
rhumerus 50.5986 21.7035 -39.9423
rradius 55.6266
rwrist 10.2154
rhand 20.0877 -59.0794
rfingers 7.12502
rthumb 44.6168 -802.728
lclavicle 1.76918e-014 3.22031e-014
lhumerus 71.2912 -30.9552 29.2882
lradius 40.6305
lwrist -3.5097
lhand -23.775 20.293
lfingers 7.12502
lthumb 2.69467 50.2558
rfemur -24.9524 27.2254 13.2218
rtibia 4.8837
rfoot -9.37934 -28.1071
rtoes 3.43223
lfemur -18.3131 -61.1249 10.4539
ltibia -5.1355
lfoot -74.3074 55.8258
ltoes 43.9655
1652
root 0.188416 17.6272 7.93947 22.7886 -2.9341 -9.27053
lowerback 6.50356 1.93315 6.45842
upperback 1.36914 3.08996 3.78762
thorax -2.09765 1.5027 0.0491023
lowerneck -16.1428 -5.24531 -5.73369
upperneck 10.2313 -6.92505 7.93704
head 6.22701 -2.96568 2.75634
rclavicle 2.36554e-014 -1.11319e-014
rhumerus 50.1086 21.6524 -41.8005
rradius 55.5312
rwrist 10.6491
rhand 18.9239 -61.5891
rfingers 7.12502
rthumb 43.5313 -805.645
lclavicle 2.36554e-014 -1.11319e-014
lhumerus 71.2284 -30.9942 29.4875
lradius 40.1659
lwrist -3.44562
lhand -24.4467 20.9041
lfingers 7.12502
lthumb 2.04595 50.8741
rfemur -24.9975 27.2018 13.1879
rtibia 4.92566
rfoot -9.37375 -28.0257
rtoes 3.2037
lfemur -18.2453 -61.0827 10.3599
ltibia -5.14251
lfoot -74.3611 55.7406
ltoes 44.0293
1653
root 0.189016 17.6272 7.93887 22.8006 -2.94729 -9.27191
lowerback 6.47553 1.8851 6.40862
upperback 1.35004 3.02236 3.81116
thorax -2.10878 1.469 0.106595
lowerneck -16.0431 -5.10972 -5.57961
upperneck 10.1058 -6.73833 7.70823
head 6.14301 -2.89161 2.68099
rclavicle -6.95746e-015 1.59028e-014
rhumerus 49.6813 21.5897 -43.5248
rradius 55.4341
rwrist 11.0752
rhand 17.5885 -63.7708
rfingers 7.12502
rthumb 42.2823 -808.265
lclavicle -6.95746e-015 1.59028e-014
lhumerus 71.2232 -31.0405 29.6703
lradius 39.5822
lwrist -3.35146
lhand -25.3906 21.2903
lfingers 7.12502
lthumb 1.13427 51.267
rfemur -25.0302 27.166 13.1824
rtibia 4.94539
rfoot -9.40713 -27.9908
rtoes 3.21062
lfemur -18.3051 -61.0746 10.4079
ltibia -5.12794
lfoot -74.3 55.8917
ltoes 43.8429
1654
root 0.19097 17.6259 7.93799 22.8128 -2.94946 -9.22678
lowerback 6.4227 1.82868 6.28951
upperback 1.35051 2.93627 3.86851
thorax -2.09169 1.4276 0.239992
lowerneck -15.9892 -4.96421 -5.37456
upperneck 9.96898 -6.52797 7.3468
head 6.05551 -2.81325 2.5567
rclavicle -4.39314e-014 -9.10434e-014
rhumerus 49.3115 21.5261 -45.1541
rradius 55.2771
rwrist 11.762
rhand 16.0737 -66.0705
rfingers 7.12502
rthumb 40.8613 -628.969
lclavicle -4.39314e-014 -9.10434e-014
lhumerus 71.1029 -31.028 30.1418
lradius 38.8151
lwrist -3.51758
lhand -26.3368 20.8601
lfingers 7.12502
lthumb 0.220465 50.8397
rfemur -25.0574 27.1463 13.112
rtibia 4.94677
rfoot -9.43012 -28.0135
rtoes 3.21798
lfemur -18.3935 -61.0948 10.4234
ltibia -5.0992
lfoot -74.2493 55.9998
ltoes 43.7421
1655
root 0.192977 17.6246 7.93658 22.8218 -2.95555 -9.16854
lowerback 6.39335 1.77944 6.16716
upperback 1.35323 2.86143 3.91965
thorax -2.08425 1.39155 0.367083
lowerneck -15.981 -4.84825 -5.24371
upperneck 9.85921 -6.35199 7.05591
head 5.99268 -2.74727 2.46226
rclavicle -7.15625e-015 -5.12864e-014
rhumerus 49.069 21.4485 -46.6243
rradius 54.9175
rwrist 12.6663
rhand 14.4712 -68.0938
rfingers 7.12502
rthumb 39.3536 -626.488
lclavicle -7.15625e-015 -5.12864e-014
lhumerus 70.9149 -31.0146 30.8399
lradius 37.9326
lwrist -4.01029
lhand -27.0794 20.095
lfingers 7.12502
lthumb -0.496742 50.0742
rfemur -25.0784 27.2063 13.0057
rtibia 4.94126
rfoot -9.44016 -28.1047
rtoes 3.25473
lfemur -18.4604 -61.1238 10.3982
ltibia -5.05971
lfoot -74.3122 55.9122
ltoes 43.836
1656
root 0.19433 17.6239 7.93547 22.8143 -2.95504 -9.16829
lowerback 6.38296 1.73247 6.09426
upperback 1.35185 2.79515 3.98197
thorax -2.08909 1.35906 0.477062
lowerneck -15.9769 -4.75755 -5.19676
upperneck 9.79029 -6.20749 6.85613
head 5.95217 -2.69191 2.40674
rclavicle 1.37161e-014 4.29375e-014
rhumerus 49.2666 21.6479 -47.0823
rradius 54.55
rwrist 12.8952
rhand 13.1857 -69.9601
rfingers 7.12502
rthumb 38.1412 -624.279
lclavicle 1.37161e-014 4.29375e-014
lhumerus 70.6736 -31.0077 31.7282
lradius 36.9481
lwrist -4.83282
lhand -27.5782 19.3473
lfingers 7.12502
lthumb -0.978492 49.3248
rfemur -25.0654 27.2444 12.9964
rtibia 4.92493
rfoot -9.41523 -28.137
rtoes 3.12756
lfemur -18.452 -61.1466 10.3886
ltibia -5.05709
lfoot -74.4612 55.717
ltoes 44.0343
1657
root 0.196308 17.6238 7.93428 22.7912 -2.96959 -9.16863
lowerback 6.37646 1.6831 6.03649
upperback 1.32138 2.72864 4.023
thorax -2.12419 1.32535 0.556053
lowerneck -15.7953 -4.66159 -5.11383
upperneck 9.63801 -6.06661 6.65285
head 5.85549 -2.64171 2.34704
rclavicle 1.27222e-014 4.41302e-014
rhumerus 49.3489 21.9326 -47.5692
rradius 54.1935
rwrist 13.0208
rhand 12.626 -71.7643
rfingers 7.12502
rthumb 37.6125 -622.332
lclavicle 1.27222e-014 4.41302e-014
lhumerus 70.4157 -31.0421 32.5967
lradius 35.9603
lwrist -5.65112
lhand -27.8669 18.711
lfingers 7.12502
lthumb -1.25734 48.687
rfemur -25.0306 27.2498 12.9983
rtibia 4.90045
rfoot -9.42747 -28.117
rtoes 2.8276
lfemur -18.3631 -61.1687 10.3171
ltibia -5.09792
lfoot -74.5383 55.6379
ltoes 44.1887
1658
root 0.198296 17.6242 7.93195 22.7794 -2.98955 -9.12095
lowerback 6.3446 1.62726 5.95605
upperback 1.28978 2.64922 4.03906
thorax -2.14628 1.28569 0.623638
lowerneck -15.5198 -4.55868 -4.96789
upperneck 9.36526 -5.9265 6.43852
head 5.70378 -2.59325 2.27552
rclavicle 4.96962e-015 -1.03368e-014
rhumerus 48.3338 21.5748 -50.5168
rradius 53.6302
rwrist 15.135
rhand 12.4553 -72.5392
rfingers 7.12502
rthumb 37.4512 -621.514
lclavicle 4.96962e-015 -1.03368e-014
lhumerus 70.2136 -31.0744 33.2595
lradius 35.1042
lwrist -6.02739
lhand -28.0221 18.1513
lfingers 7.12502
lthumb -1.40723 48.1264
rfemur -25.0365 27.3052 12.9063
rtibia 4.9041
rfoot -9.50749 -28.1647
rtoes 3.06309
lfemur -18.3126 -61.1985 10.2202
ltibia -5.11952
lfoot -74.579 55.5768
ltoes 44.2599
